<svg xmlns="http://www.w3.org/2000/svg" width="47" height="80" fill="none"><path fill="#BCE8FF" d="M44.86 27.275c-.477.36-8.905 4.976-8.905 15.241C35.955 54.39 46.68 58.59 47 58.694c-.05.256-1.704 5.752-5.654 11.353-3.522 4.928-7.201 9.849-12.797 9.849-5.597 0-7.037-3.16-13.498-3.16C8.755 76.736 6.517 80 1.398 80c-5.12 0-8.691-4.56-12.798-10.161-4.757-6.577-8.6-16.794-8.6-26.49C-20 27.794-9.597 19.545.64 19.545c5.44 0 9.975 3.472 13.39 3.472 3.252 0 8.321-3.68 14.51-3.68 2.346 0 10.773.208 16.32 7.937ZM25.602 12.753c2.56-2.952 4.37-7.048 4.37-11.145 0-.568-.05-1.144-.156-1.608-4.165.152-9.119 2.696-12.106 6.065-2.346 2.592-4.535 6.688-4.535 10.84 0 .625.107 1.249.156 1.449.264.048.692.104 1.12.104 3.736 0 8.435-2.432 11.151-5.705Z"/></svg>