<svg xmlns="http://www.w3.org/2000/svg" width="232" height="232" fill="none"><path fill="#000" d="M8 0H0v8h8V0ZM8 8H0v8h8V8ZM8 16H0v8h8v-8ZM8 24H0v8h8v-8ZM8 32H0v8h8v-8ZM8 40H0v8h8v-8ZM8 48H0v8h8v-8ZM8 64H0v8h8v-8ZM8 80H0v8h8v-8ZM8 88H0v8h8v-8ZM8 112H0v8h8v-8ZM8 136H0v8h8v-8ZM8 152H0v8h8v-8ZM8 160H0v8h8v-8ZM8 176H0v8h8v-8ZM8 184H0v8h8v-8ZM8 192H0v8h8v-8ZM8 200H0v8h8v-8ZM8 208H0v8h8v-8ZM8 216H0v8h8v-8ZM8 224H0v8h8v-8ZM16 0H8v8h8V0ZM16 48H8v8h8v-8ZM16 64H8v8h8v-8ZM16 72H8v8h8v-8ZM16 80H8v8h8v-8ZM16 120H8v8h8v-8ZM16 144H8v8h8v-8ZM16 152H8v8h8v-8ZM16 176H8v8h8v-8ZM16 224H8v8h8v-8ZM24 0h-8v8h8V0ZM24 16h-8v8h8v-8ZM24 24h-8v8h8v-8ZM24 32h-8v8h8v-8ZM24 48h-8v8h8v-8ZM24 64h-8v8h8v-8ZM24 72h-8v8h8v-8ZM24 96h-8v8h8v-8ZM24 104h-8v8h8v-8ZM24 112h-8v8h8v-8ZM24 120h-8v8h8v-8ZM24 176h-8v8h8v-8ZM24 192h-8v8h8v-8ZM24 200h-8v8h8v-8ZM24 208h-8v8h8v-8ZM24 224h-8v8h8v-8ZM32 0h-8v8h8V0ZM32 16h-8v8h8v-8ZM32 24h-8v8h8v-8ZM32 32h-8v8h8v-8ZM32 48h-8v8h8v-8ZM32 64h-8v8h8v-8ZM32 80h-8v8h8v-8ZM32 88h-8v8h8v-8ZM32 104h-8v8h8v-8ZM32 128h-8v8h8v-8ZM32 144h-8v8h8v-8ZM32 160h-8v8h8v-8ZM32 176h-8v8h8v-8ZM32 192h-8v8h8v-8ZM32 200h-8v8h8v-8ZM32 208h-8v8h8v-8ZM32 224h-8v8h8v-8ZM40 0h-8v8h8V0ZM40 16h-8v8h8v-8ZM40 24h-8v8h8v-8ZM40 32h-8v8h8v-8ZM40 48h-8v8h8v-8ZM40 88h-8v8h8v-8ZM40 96h-8v8h8v-8ZM40 112h-8v8h8v-8ZM40 128h-8v8h8v-8ZM40 136h-8v8h8v-8ZM40 152h-8v8h8v-8ZM40 176h-8v8h8v-8ZM40 192h-8v8h8v-8ZM40 200h-8v8h8v-8ZM40 208h-8v8h8v-8ZM40 224h-8v8h8v-8ZM48 0h-8v8h8V0ZM48 48h-8v8h8v-8ZM48 80h-8v8h8v-8ZM48 96h-8v8h8v-8ZM48 104h-8v8h8v-8ZM48 112h-8v8h8v-8ZM48 120h-8v8h8v-8ZM48 136h-8v8h8v-8ZM48 144h-8v8h8v-8ZM48 152h-8v8h8v-8ZM48 176h-8v8h8v-8ZM48 224h-8v8h8v-8ZM56 0h-8v8h8V0ZM56 8h-8v8h8V8ZM56 16h-8v8h8v-8ZM56 24h-8v8h8v-8ZM56 32h-8v8h8v-8ZM56 40h-8v8h8v-8ZM56 48h-8v8h8v-8ZM56 64h-8v8h8v-8ZM56 80h-8v8h8v-8ZM56 96h-8v8h8v-8ZM56 112h-8v8h8v-8ZM56 128h-8v8h8v-8ZM56 144h-8v8h8v-8ZM56 160h-8v8h8v-8ZM56 176h-8v8h8v-8ZM56 184h-8v8h8v-8ZM56 192h-8v8h8v-8ZM56 200h-8v8h8v-8ZM56 208h-8v8h8v-8ZM56 216h-8v8h8v-8ZM56 224h-8v8h8v-8ZM64 72h-8v8h8v-8ZM64 88h-8v8h8v-8ZM64 96h-8v8h8v-8ZM64 120h-8v8h8v-8ZM72 0h-8v8h8V0ZM72 16h-8v8h8v-8ZM72 24h-8v8h8v-8ZM72 32h-8v8h8v-8ZM72 48h-8v8h8v-8ZM72 64h-8v8h8v-8ZM72 72h-8v8h8v-8ZM72 80h-8v8h8v-8ZM72 136h-8v8h8v-8ZM72 152h-8v8h8v-8ZM72 160h-8v8h8v-8ZM72 168h-8v8h8v-8ZM72 200h-8v8h8v-8ZM72 208h-8v8h8v-8ZM72 216h-8v8h8v-8ZM72 224h-8v8h8v-8ZM80 8h-8v8h8V8ZM80 16h-8v8h8v-8ZM80 24h-8v8h8v-8ZM80 80h-8v8h8v-8ZM80 88h-8v8h8v-8ZM80 96h-8v8h8v-8ZM80 112h-8v8h8v-8ZM80 136h-8v8h8v-8ZM80 144h-8v8h8v-8ZM80 160h-8v8h8v-8ZM80 184h-8v8h8v-8ZM80 192h-8v8h8v-8ZM80 200h-8v8h8v-8ZM80 208h-8v8h8v-8ZM80 216h-8v8h8v-8ZM80 224h-8v8h8v-8ZM88 0h-8v8h8V0ZM88 8h-8v8h8V8ZM88 16h-8v8h8v-8ZM88 24h-8v8h8v-8ZM88 40h-8v8h8v-8ZM88 48h-8v8h8v-8ZM88 56h-8v8h8v-8ZM88 64h-8v8h8v-8ZM88 72h-8v8h8v-8ZM88 80h-8v8h8v-8ZM88 88h-8v8h8v-8ZM88 96h-8v8h8v-8ZM88 128h-8v8h8v-8ZM88 136h-8v8h8v-8ZM88 144h-8v8h8v-8ZM88 152h-8v8h8v-8ZM88 160h-8v8h8v-8ZM88 168h-8v8h8v-8ZM88 176h-8v8h8v-8ZM88 184h-8v8h8v-8ZM88 192h-8v8h8v-8ZM88 208h-8v8h8v-8ZM88 224h-8v8h8v-8ZM96 8h-8v8h8V8ZM96 32h-8v8h8v-8ZM96 40h-8v8h8v-8ZM96 64h-8v8h8v-8ZM96 80h-8v8h8v-8ZM96 104h-8v8h8v-8ZM96 112h-8v8h8v-8ZM96 120h-8v8h8v-8ZM96 152h-8v8h8v-8ZM96 184h-8v8h8v-8ZM96 192h-8v8h8v-8ZM96 200h-8v8h8v-8ZM96 224h-8v8h8v-8ZM104 0h-8v8h8V0ZM104 8h-8v8h8V8ZM104 24h-8v8h8v-8ZM104 32h-8v8h8v-8ZM104 48h-8v8h8v-8ZM104 56h-8v8h8v-8ZM104 64h-8v8h8v-8ZM104 72h-8v8h8v-8ZM104 80h-8v8h8v-8ZM104 96h-8v8h8v-8ZM104 104h-8v8h8v-8ZM104 128h-8v8h8v-8ZM104 184h-8v8h8v-8ZM104 208h-8v8h8v-8ZM104 216h-8v8h8v-8ZM112 0h-8v8h8V0ZM112 8h-8v8h8V8ZM112 16h-8v8h8v-8ZM112 24h-8v8h8v-8ZM112 72h-8v8h8v-8ZM112 88h-8v8h8v-8ZM112 96h-8v8h8v-8ZM112 128h-8v8h8v-8ZM112 136h-8v8h8v-8ZM112 168h-8v8h8v-8ZM112 176h-8v8h8v-8ZM112 184h-8v8h8v-8ZM112 200h-8v8h8v-8ZM112 216h-8v8h8v-8ZM120 16h-8v8h8v-8ZM120 24h-8v8h8v-8ZM120 48h-8v8h8v-8ZM120 88h-8v8h8v-8ZM120 96h-8v8h8v-8ZM120 112h-8v8h8v-8ZM120 128h-8v8h8v-8ZM120 136h-8v8h8v-8ZM120 144h-8v8h8v-8ZM120 152h-8v8h8v-8ZM120 184h-8v8h8v-8ZM120 200h-8v8h8v-8ZM120 208h-8v8h8v-8ZM128 32h-8v8h8v-8ZM128 56h-8v8h8v-8ZM128 64h-8v8h8v-8ZM128 88h-8v8h8v-8ZM128 96h-8v8h8v-8ZM128 104h-8v8h8v-8ZM128 120h-8v8h8v-8ZM128 136h-8v8h8v-8ZM128 144h-8v8h8v-8ZM128 200h-8v8h8v-8ZM136 0h-8v8h8V0ZM136 8h-8v8h8V8ZM136 16h-8v8h8v-8ZM136 32h-8v8h8v-8ZM136 48h-8v8h8v-8ZM136 56h-8v8h8v-8ZM136 64h-8v8h8v-8ZM136 80h-8v8h8v-8ZM136 96h-8v8h8v-8ZM136 120h-8v8h8v-8ZM136 128h-8v8h8v-8ZM136 136h-8v8h8v-8ZM136 144h-8v8h8v-8ZM136 176h-8v8h8v-8ZM136 216h-8v8h8v-8ZM136 224h-8v8h8v-8ZM144 24h-8v8h8v-8ZM144 40h-8v8h8v-8ZM144 56h-8v8h8v-8ZM144 64h-8v8h8v-8ZM144 96h-8v8h8v-8ZM144 112h-8v8h8v-8ZM144 144h-8v8h8v-8ZM144 152h-8v8h8v-8ZM144 160h-8v8h8v-8ZM144 192h-8v8h8v-8ZM144 208h-8v8h8v-8ZM152 0h-8v8h8V0ZM152 8h-8v8h8V8ZM152 16h-8v8h8v-8ZM152 24h-8v8h8v-8ZM152 40h-8v8h8v-8ZM152 48h-8v8h8v-8ZM152 56h-8v8h8v-8ZM152 64h-8v8h8v-8ZM152 96h-8v8h8v-8ZM152 112h-8v8h8v-8ZM152 128h-8v8h8v-8ZM152 152h-8v8h8v-8ZM152 160h-8v8h8v-8ZM152 208h-8v8h8v-8ZM152 224h-8v8h8v-8ZM160 0h-8v8h8V0ZM160 32h-8v8h8v-8ZM160 40h-8v8h8v-8ZM160 56h-8v8h8v-8ZM160 72h-8v8h8v-8ZM160 96h-8v8h8v-8ZM160 104h-8v8h8v-8ZM160 112h-8v8h8v-8ZM160 120h-8v8h8v-8ZM160 160h-8v8h8v-8ZM160 168h-8v8h8v-8ZM160 176h-8v8h8v-8ZM160 224h-8v8h8v-8ZM168 0h-8v8h8V0ZM168 8h-8v8h8V8ZM168 24h-8v8h8v-8ZM168 40h-8v8h8v-8ZM168 48h-8v8h8v-8ZM168 72h-8v8h8v-8ZM168 80h-8v8h8v-8ZM168 88h-8v8h8v-8ZM168 104h-8v8h8v-8ZM168 112h-8v8h8v-8ZM168 136h-8v8h8v-8ZM168 144h-8v8h8v-8ZM168 160h-8v8h8v-8ZM168 168h-8v8h8v-8ZM168 176h-8v8h8v-8ZM168 184h-8v8h8v-8ZM168 192h-8v8h8v-8ZM168 200h-8v8h8v-8ZM168 208h-8v8h8v-8ZM168 216h-8v8h8v-8ZM168 224h-8v8h8v-8ZM176 64h-8v8h8v-8ZM176 72h-8v8h8v-8ZM176 80h-8v8h8v-8ZM176 88h-8v8h8v-8ZM176 128h-8v8h8v-8ZM176 144h-8v8h8v-8ZM176 152h-8v8h8v-8ZM176 160h-8v8h8v-8ZM176 192h-8v8h8v-8ZM176 200h-8v8h8v-8ZM176 208h-8v8h8v-8ZM176 216h-8v8h8v-8ZM184 0h-8v8h8V0ZM184 8h-8v8h8V8ZM184 16h-8v8h8v-8ZM184 24h-8v8h8v-8ZM184 32h-8v8h8v-8ZM184 40h-8v8h8v-8ZM184 48h-8v8h8v-8ZM184 72h-8v8h8v-8ZM184 80h-8v8h8v-8ZM184 104h-8v8h8v-8ZM184 112h-8v8h8v-8ZM184 120h-8v8h8v-8ZM184 144h-8v8h8v-8ZM184 152h-8v8h8v-8ZM184 160h-8v8h8v-8ZM184 176h-8v8h8v-8ZM184 192h-8v8h8v-8ZM192 0h-8v8h8V0ZM192 48h-8v8h8v-8ZM192 72h-8v8h8v-8ZM192 80h-8v8h8v-8ZM192 88h-8v8h8v-8ZM192 128h-8v8h8v-8ZM192 136h-8v8h8v-8ZM192 160h-8v8h8v-8ZM192 192h-8v8h8v-8ZM192 200h-8v8h8v-8ZM192 208h-8v8h8v-8ZM192 216h-8v8h8v-8ZM192 224h-8v8h8v-8ZM200 0h-8v8h8V0ZM200 16h-8v8h8v-8ZM200 24h-8v8h8v-8ZM200 32h-8v8h8v-8ZM200 48h-8v8h8v-8ZM200 64h-8v8h8v-8ZM200 72h-8v8h8v-8ZM200 88h-8v8h8v-8ZM200 112h-8v8h8v-8ZM200 120h-8v8h8v-8ZM200 128h-8v8h8v-8ZM200 144h-8v8h8v-8ZM200 160h-8v8h8v-8ZM200 168h-8v8h8v-8ZM200 176h-8v8h8v-8ZM200 184h-8v8h8v-8ZM200 192h-8v8h8v-8ZM200 200h-8v8h8v-8ZM200 216h-8v8h8v-8ZM208 0h-8v8h8V0ZM208 16h-8v8h8v-8ZM208 24h-8v8h8v-8ZM208 32h-8v8h8v-8ZM208 48h-8v8h8v-8ZM208 64h-8v8h8v-8ZM208 96h-8v8h8v-8ZM208 128h-8v8h8v-8ZM208 136h-8v8h8v-8ZM208 160h-8v8h8v-8ZM208 168h-8v8h8v-8ZM208 176h-8v8h8v-8ZM208 184h-8v8h8v-8ZM208 200h-8v8h8v-8ZM208 216h-8v8h8v-8ZM216 0h-8v8h8V0ZM216 16h-8v8h8v-8ZM216 24h-8v8h8v-8ZM216 32h-8v8h8v-8ZM216 48h-8v8h8v-8ZM216 64h-8v8h8v-8ZM216 80h-8v8h8v-8ZM216 96h-8v8h8v-8ZM216 104h-8v8h8v-8ZM216 112h-8v8h8v-8ZM216 136h-8v8h8v-8ZM216 144h-8v8h8v-8ZM216 152h-8v8h8v-8ZM216 160h-8v8h8v-8ZM216 168h-8v8h8v-8ZM216 192h-8v8h8v-8ZM216 208h-8v8h8v-8ZM224 0h-8v8h8V0ZM224 48h-8v8h8v-8ZM224 80h-8v8h8v-8ZM224 104h-8v8h8v-8ZM224 112h-8v8h8v-8ZM224 120h-8v8h8v-8ZM224 128h-8v8h8v-8ZM224 136h-8v8h8v-8ZM224 168h-8v8h8v-8ZM224 176h-8v8h8v-8ZM224 192h-8v8h8v-8ZM224 216h-8v8h8v-8ZM224 224h-8v8h8v-8ZM232 0h-8v8h8V0ZM232 8h-8v8h8V8ZM232 16h-8v8h8v-8ZM232 24h-8v8h8v-8ZM232 32h-8v8h8v-8ZM232 40h-8v8h8v-8ZM232 48h-8v8h8v-8ZM232 64h-8v8h8v-8ZM232 72h-8v8h8v-8ZM232 88h-8v8h8v-8ZM232 104h-8v8h8v-8ZM232 112h-8v8h8v-8ZM232 168h-8v8h8v-8ZM232 192h-8v8h8v-8ZM232 200h-8v8h8v-8ZM232 208h-8v8h8v-8Z"/></svg>